<?xml version="1.0" encoding="UTF-8" standalone="no"?>
<svg xmlns:xlink="http://www.w3.org/1999/xlink" height="64.5px" width="45.0px" xmlns="http://www.w3.org/2000/svg">
  <g transform="matrix(1.0, 0.0, 0.0, 1.0, 22.5, 9.2)">
    <path d="M0.0 0.0 Q14.6 22.7 15.75 25.0 17.5 28.65 17.5 32.8 17.5 40.0 12.4 45.2 7.2 50.3 0.0 50.3 L-0.3 50.3 Q-7.35 50.15 -12.4 45.2 -17.5 40.0 -17.5 32.8 -17.5 29.3 -15.95 25.6 -14.9 23.1 0.0 0.0" fill="#ffff00" fill-rule="evenodd" stroke="none"/>
    <path d="M0.0 0.0 Q-14.9 23.1 -15.95 25.6 -17.5 29.3 -17.5 32.8 -17.5 40.0 -12.4 45.2 -7.35 50.15 -0.3 50.3 L0.0 50.3 Q7.2 50.3 12.4 45.2 17.5 40.0 17.5 32.8 17.5 28.65 15.75 25.0 14.6 22.7 0.0 0.0 Z" fill="none" stroke="#ffff00" stroke-linecap="round" stroke-linejoin="miter" stroke-miterlimit="3.0" stroke-width="10.0"/>
  </g>
</svg>
